<?xml version="1.0" encoding="utf-8"?>
<!-- Generator: Adobe Illustrator 16.0.0, SVG Export Plug-In . SVG Version: 6.00 Build 0)  -->
<!DOCTYPE svg PUBLIC "-//W3C//DTD SVG 1.1//EN" "http://www.w3.org/Graphics/SVG/1.1/DTD/svg11.dtd">
<svg version="1.1" id="Layer_1" xmlns="http://www.w3.org/2000/svg" xmlns:xlink="http://www.w3.org/1999/xlink" x="0px" y="0px"
	 width="1200px" height="259.5px" viewBox="0 540.5 1200 259.5" enable-background="new 0 540.5 1200 259.5" xml:space="preserve">
<g id="layer101">
	<path d="M0,716c0-58.8,0.3-84,1.1-84c0.6,0,1.9,0.4,2.9,1c2.7,1.4,11.4,1.9,15.7,0.9c7.6-1.9,39.9-3.2,87.3-3.601
		c53.3-0.399,51.9-0.5,76.2,6.3c4.9,1.301,12.7,3.5,17.5,4.801c4.9,1.399,11.5,3.199,14.8,4.1s7.8,2.1,10,2.7
		c2.2,0.5,10.9,3.2,19.4,6c8.4,2.7,19,5.6,23.5,6.399c4.4,0.801,10.6,2,13.6,2.5c11.8,2.2,25.1,3,67,3.801
		c23.9,0.5,45.9,1.399,48.9,2c6.1,1.199,13.1,1.399,11.6,0.3c-0.6-0.4-3.1-3.4-5.7-6.7c-8-10.5-10.2-22-11.5-59.6
		c-0.7-22.301-1.5-20,9-23.7c6.5-2.3,6.9-2.3,12.2-0.7c4.6,1.3,27,12.1,30,14.5c1.8,1.4,19.8,7.8,26.5,9.3
		c18.4,4.4,44.2,5.9,94,5.601c22.8-0.2,63.3,0.1,90,0.5c47.9,0.8,85.7-0.101,102-2.5c3.6-0.5,12.6-1.5,20-2
		c9.2-0.801,15.1-1.7,18.5-3.101c5.2-2.1,27-3.899,65-5.3c16.8-0.6,32.5-2.6,52.2-6.7c8.1-1.6,11.5-2.899,16.7-6.2
		c9.699-6.199,12.699-7.899,17.3-9.8c8-3.3,12-6.5,15-12c2.7-5.1,3-5.3,7.3-5.6c2.5-0.101,5.1,0.2,5.8,0.6c0.7,0.5,2.5,5.3,3.8,10.7
		c1.4,5.4,4.301,13.5,6.5,17.9c4.4,8.899,5.801,17.199,5.9,34.1c0,7.9-0.3,9.7-2.9,15c-1.6,3.3-3.6,9-4.5,12.6
		c-0.8,3.7-3.699,11.301-6.399,17c-2.8,5.7-4.9,10.5-4.7,10.7s2.7-0.899,5.7-2.399c6-3.101,27.6-9.5,41.8-12.4c8.1-1.6,17.4-2,64-3
		c67.4-1.5,110.6-1.7,114.3-0.7l2.7,0.7v72v72H600H0V716z"/>
</g>
<g id="layer102">
	<path fill="#1F1F0D" d="M0,716c0-58.8,0.3-84,1.1-84c0.6,0,1.9,0.4,2.9,1c2.7,1.4,11.4,1.9,15.7,0.9c7.6-1.9,39.9-3.2,87.3-3.601
		c53.3-0.399,51.9-0.5,76.2,6.3c4.9,1.301,12.7,3.5,17.5,4.801c4.9,1.399,11.5,3.199,14.8,4.1s7.8,2.1,10,2.7
		c2.2,0.5,10.9,3.2,19.4,6c8.4,2.7,19,5.6,23.5,6.399c4.4,0.801,10.6,2,13.6,2.5c11.8,2.2,25.1,3,67,3.801
		c23.9,0.5,45.9,1.399,48.9,2c6.1,1.199,13.1,1.399,11.6,0.3c-0.6-0.4-3.1-3.4-5.7-6.7c-8-10.5-10.2-22-11.5-59.6
		c-0.7-22.301-1.5-20,9-23.7c6.5-2.3,6.9-2.3,12.2-0.7c4.6,1.3,27,12.1,30,14.5c1.8,1.4,19.8,7.8,26.5,9.3
		c18.4,4.4,44.2,5.9,94,5.601c22.8-0.2,63.3,0.1,90,0.5c47.9,0.8,85.7-0.101,102-2.5c3.6-0.5,12.6-1.5,20-2
		c9.2-0.801,15.1-1.7,18.5-3.101c5.2-2.1,27-3.899,65-5.3c16.8-0.6,32.5-2.6,52.2-6.7c8.1-1.6,11.5-2.899,16.7-6.2
		c9.699-6.199,12.699-7.899,17.3-9.8c8-3.3,12-6.5,15-12c2.7-5.1,3-5.3,7.3-5.6c2.5-0.101,5.1,0.2,5.8,0.6c0.7,0.5,2.5,5.3,3.8,10.7
		c1.4,5.4,4.301,13.5,6.5,17.9c4.4,8.899,5.801,17.199,5.9,34.1c0,7.9-0.3,9.7-2.9,15c-1.6,3.3-3.6,9-4.5,12.6
		c-0.8,3.7-3.699,11.301-6.399,17c-2.8,5.7-4.9,10.5-4.7,10.7s2.7-0.899,5.7-2.399c6-3.101,27.6-9.5,41.8-12.4c8.1-1.6,17.4-2,64-3
		c67.4-1.5,110.6-1.7,114.3-0.7l2.7,0.7v72v72H767c-397,0-433-0.1-433-1.6c0-1.101,0.5-1.4,1.6-1c1,0.399,2.2-0.101,3-1.101
		c1.101-1.6,1.601-1.6,3.5-0.5c1.2,0.8,2.4,1,2.801,0.5c0.899-1.2,5.899-3.3,8-3.3c1,0,2.399-0.6,3-1.4c0.699-0.8,2.1-1.199,3.3-0.8
		c1.8,0.4,2,0.2,1.5-1.8c-0.4-1.7-0.3-2,0.6-1.1c2,2,4.5,1.199,5.601-1.9c0.5-1.6,1.5-3,2-3c0.6,0,1.1-0.3,1.1-0.7
		c0-0.5-2.7-0.899-6-1.1c-4.8-0.2-6,0.1-6,1.3s-0.6,1.4-2.7,0.9c-3.3-0.9-4.2-0.9-6.8,0.1c-1.6,0.5-1.7,0.5-0.5-0.4
		c1.1-0.8,1.2-1.1,0.2-1.1c-0.7,0-2,0.7-2.8,1.5c-1.7,1.7-4.9,2.1-3.9,0.5c0.3-0.5-0.3-1-1.4-1c-1.199,0-2.1,0.4-2.1,1
		c0,0.5-0.3,0.9-0.7,0.8c-0.5,0-1.5,0.101-2.3,0.5c-3.5,1.3-6,1.5-6,0.4c0-0.8-0.3-0.9-0.8-0.101c-0.9,1.4-4.5,2.7-3.7,1.4
		c0.9-1.5,0.1-1.2-4.9,1.4c-2.5,1.3-4.199,2.699-3.8,3c0.3,0.399-0.1,0.399-1,0.1c-1.1-0.5-2.6,0.2-4.2,2c-1.3,1.4-3,2.5-3.8,2.4
		C304,795.6,303,796.1,303,797.8c0,1.4,0.2,1.5,1,0.2s1-1.3,1,0.2c0,1.7-5.2,1.8-87.5,1.8c-90,0-89.6,0-86.7-3.6
		c0.4-0.5,0.3-0.601-0.3-0.101c-1.5,1.101-2.5,0.8-2.5-0.8c0-0.9,0.9-1.5,2.2-1.5c1.4,0,1.8-0.4,1.3-0.9
		c-1.7-1.6-14.6,0.301-15.7,2.2c-0.5,0.9-1.7,1.7-2.6,1.7c-1.5,0-1.5-0.2-0.2-1.1c1.2-0.7,0.8-0.9-1.5-0.7c-2.5,0.3-3,0.7-2.8,2.8
		c0.1,1.4,0,1.8-0.3,0.8c-0.7-2.2-2.4-2.399-2.4-0.3c0,1.3-6.6,1.5-53,1.5H0V716z M374,781.8c0-0.6,0.6-0.6,1.4,0.101
		c1.199,1,1.3,0.8,0.899-0.801c-0.3-1.199-0.7-2.1-0.899-2.1c-0.5,0-3.4,2.9-5.4,5.5c-1.5,1.8-1.4,1.8,1.3,0.1
		C372.8,783.6,374,782.3,374,781.8z M381.5,781c0.4-0.6-0.6-1-2.2-0.9c-2.5,0-2.6,0.101-0.8,0.9c1.1,0.5,2.1,0.9,2.2,0.9
		C380.8,782,381.2,781.6,381.5,781z"/>
	<path fill="#1F1F0D" d="M115.2,798.3c0.2-1.399,1.7-2,5.8-2.5c5.6-0.7,7,0,6.9,3.2c0,1-0.3,0.8-0.9-0.5l-0.9-2l-0.1,2l-0.1,2
		l-0.9-2c-0.7-1.7-0.9-1.7-0.9-0.2c-0.1,1.4-1,1.7-4.7,1.7C115.6,800,114.9,799.7,115.2,798.3z"/>
</g>
<g id="layer103">
	<path fill="#353715" d="M12,799c1.9-0.5,3.8-0.6,4.2-0.4c0.5,0.301,1-0.1,1.3-0.8c0.4-1,3.1-1.3,10.5-1.2
		c10.2,0.101,11.7,0.4,10.5,2.301c-0.4,0.699-5.9,1.1-15.3,1C13.2,799.8,9.6,799.5,12,799z"/>
	<path fill="#353715" d="M59,798.5c0-1,1-1.5,3.4-1.5c1.9,0,3.8-0.4,4.1-1c0.3-0.5,1.4-1,2.5-1c1,0,2-0.7,2.4-1.5
		c0.3-0.8,1.5-1.5,2.6-1.5s2-0.3,2-0.8c0-0.4,1.8-0.601,4-0.4s4,0,4-0.6c0-0.5,2-1.5,4.4-2.101c2.5-0.6,4.8-1.5,5.1-2.1
		c0.3-0.5,1.3-1,2.2-1c0.9,0,2.6-0.9,3.7-1.9c3.8-3.5,9.6-3,9.6,0.801c0,1.399-0.6,1.699-2.3,1.399c-5.1-1-15.4,6.4-11.3,8.101
		c0.6,0.199,0.3,0.5-0.6,0.5c-0.9,0.1-2-0.4-2.4-1c-0.5-0.801-1.3-0.4-2.4,1.1c-1,1.4-3,2.3-5.1,2.5c-1.9,0.2-3.7,0.3-4.1,0.4
		c-0.5,0.1-0.8,0.8-0.8,1.6c0,1.2-1.8,1.5-10.5,1.5S59,799.7,59,798.5z"/>
	<path fill="#353715" d="M481.2,798.8c4.8-0.6,11.2-0.6,17,0c9,0.9,8.8,0.9-7.7,0.9C475.1,799.7,474.2,799.6,481.2,798.8z"/>
	<path fill="#353715" d="M1114,798.6c0-1.899-5.4-3.699-9-2.899c-2.2,0.399-3.1,0.1-3.6-1.101c-0.301-0.899-1-1.399-1.4-1.1
		c-0.5,0.3-0.6-0.4-0.3-1.5c0.5-1.8,2.3-2.6,4.8-2c0.6,0.2,2.6,0.6,4.5,1s4.3,1.1,5.3,1.5c1.2,0.5,1.7,0.2,1.7-0.9
		c0-2.1,3.8-2.1,6.8,0c1.3,0.9,2.601,1.301,2.9,1c0.399-0.3,0.1-0.6-0.601-0.6c-0.899,0-0.899-0.4,0.2-1.4
		c0.8-0.8,2.4-1.199,4-0.899c2.3,0.5,2.601,0.2,2.101-1.2c-0.601-1.5-0.2-1.6,3.699-0.9c6.801,1.101,9,0.7,12.601-2.8
		c2.5-2.399,3.5-2.899,4.6-2c0.7,0.601,2.3,0.9,3.5,0.5c1.601-0.399,2.2-0.1,2.2,1.101c0,2.199,0.1,2.1,7.1-2.4
		c6.4-4.2,8.301-4.7,9.4-2.9c0.5,0.7,1.3,0.5,2.6-0.699c1.101-1,2.5-1.4,3.601-0.9c3.2,1.3,8.8,1,8.8-0.6c0-0.801,0.8-1.301,2-1.101
		c1.8,0.3,1.8,0.2,0.5-1.2c-1.3-1.3-2.2-1.399-5.5-0.5c-4.8,1.301-11.6,1.801-13,0.801c-0.5-0.301-4.4-0.2-8.5,0.3s-12.1,1-17.7,1.2
		c-9,0.3-10.1,0.199-9.5-1.301c0.3-0.899,1.3-2.1,2.101-2.8c1.699-1.2-11.7-1.1-25.4,0.3c-3.8,0.4-10.6,0.801-15,0.9
		c-10.5,0.2-23.1,1.1-27.8,2c-3.101,0.6-3.7,1.1-3.2,2.6s0.1,1.9-1.9,1.9c-2.399,0-3.899-1.3-4.199-3.7
		c-0.101-0.7,0.3-1.3,0.899-1.3c0.7,0,0.5-0.5-0.3-1c-1.3-0.8-1.3-1-0.1-1c1.1,0,1.199-0.3,0.5-1c-1.301-1.3-11-1.6-14.4-0.5
		c-1.4,0.5-3.6,0.7-4.9,0.6c-1.3-0.199-2.699,0.2-3.1,0.9c-1,1.5-13.2,1.7-19.5,0.3c-6.7-1.6-29.9-7.1-35.5-8.5
		c-5.5-1.3-13.2-2.7-18.1-3.2c-2-0.199-4.301-0.699-5-1.199c-0.801-0.5-4.101-1.2-7.4-1.601c-12.8-1.6-14.4-2-15-3.7
		c-0.6-1.899-6.6-3.8-14.2-4.399c-4-0.3-5-0.101-4.6,1c0.7,1.8-3.2,1.7-5.101-0.2c-0.8-0.8-2.399-1.5-3.5-1.5
		c-1.199,0-2.1-0.4-2.1-0.8c0-1.101-5.8-3.3-10-3.9c-1.9-0.2-6.3,0.101-9.6,0.7c-5.4,1-6.5,1-8.801-0.5c-1.699-1.2-3.5-1.5-5.6-1
		c-1.8,0.4-3,0.3-3-0.4c0-1-12.6-0.6-16.4,0.601c-1.399,0.399-1.8,0.1-1.3-1c0.5-1.3,0-1.3-4.2,0.1c-6,2.101-10.6,5.9-11.5,9.601
		c-0.5,2.1-2,3.3-6.399,5.399c-5.5,2.5-6.5,2.601-24.7,2.7c-10.4,0.1-19.9,0.5-21,0.9c-1.1,0.399-2.9,1.199-4,1.6
		c-1.1,0.5-3.9,1.4-6.2,2.1c-2.399,0.7-4.3,1.601-4.3,2c0,0.4-0.9,0.5-1.9,0.2c-1.1-0.3-3.6,0-5.5,0.7c-2,0.6-5,1.3-6.8,1.5
		c-1.8,0.3-4.6,0.8-6.3,1.1c-4.1,0.9-69.8,1.301-71,0.4c-0.5-0.4-4.4-1.1-8.4-1.4c-4.1-0.399-7.8-0.899-8.1-1.1
		c-0.4-0.2-3.5-0.7-7-1c-3.4-0.3-7.2-1.1-8.4-1.7c-1.1-0.6-5.199-1.2-9.1-1.3c-3.8-0.1-8.2-0.7-9.6-1.3c-1.5-0.601-6-1-10-1
		c-4.101,0-8.9-0.3-10.601-0.601c-2-0.399-3.3-0.199-3.3,0.4c0,0.5,0.3,0.9,0.8,0.9c0.4-0.101,1.9-0.101,3.4,0
		c4.7,0.199,2.2,2.6-2.9,2.8c-2.6,0.1-4.899,0.6-5.1,1.2c-0.2,0.6-0.8,0.8-1.4,0.5c-2-1.301-8-1.101-9.2,0.199
		c-2.199,2.2-9.8,2.301-9.5,0.2c0.7-4.5-5.5-10.399-8.399-8c-1.8,1.5-5.7,0.4-5-1.399c0.7-1.801-4.7-2-6.5-0.2
		c-0.601,0.6-4.8,1.3-9.4,1.5c-4.6,0.2-9.399,0.399-10.8,0.399c-1.4,0.101-6.8,0-12.1-0.199C524.6,760.7,521.6,761.1,519,762.3
		c-1.8,1-4.6,1.7-6.2,1.7c-3,0-3.8,1.4-1.2,2.4c2.301,0.899,3.601,0.699,2.9-0.4c-0.3-0.6-0.1-1,0.6-1c0.7,0,0.9,0.8,0.601,2.1
		c-0.5,1.9-0.3,2,2.6,1.4c9.8-2.1,18.7-1.7,18.7,0.8c0,0.7,1.8,1.8,4,2.4c2.2,0.5,4,0.7,4,0.399c0-0.899,13-0.6,15.8,0.301
		c2.5,0.8,2,2.6-0.7,2.6c-1,0-2.399,0.7-3.1,1.5s-2.5,1.5-4.1,1.5c-1.601,0-2.9,0.4-2.9,0.9c0,0.6-1.5,0.5-3.7-0.101
		c-2.1-0.6-5.8-0.7-8.3-0.399c-8.1,1.199-27.8,1.899-29.7,1.1c-1-0.5-2.2-0.7-2.8-0.5c-2.9,0.8-47.1,0.6-47.6-0.2
		c-1.2-1.899-22.9-0.3-22.9,1.7c0,1.7-7.2,0.8-8.3-1.1c-0.4-0.801-1.8-1.4-3-1.301c-1.2,0-5.9-0.5-10.4-1c-4.6-0.6-8.6-1-9-0.899
		c-0.5,0.1-2.399-0.2-4.3-0.601c-1.9-0.399-9.1-0.8-16-1c-13.1-0.3-16.3-0.8-18.6-2.699c-0.801-0.601-2.7-0.9-4.4-0.7
		c-1.9,0.3-3,0-3-0.7c0-2.2-23.4-3.8-29.4-2c-2.399,0.7-2.8,0.5-2.3-0.8c0.7-1.8-2.7-5.2-4.3-4.2c-0.7,0.4-1.8-0.2-2.6-1.4
		c-1.7-2.399-3.9-2.699-4.7-0.699c-0.3,0.8,0.2,1.6,1.399,1.899c2.2,0.601,2.601,2.7,0.5,2.7c-0.8,0-2.1-0.7-3-1.5
		c-0.8-0.8-2.199-1.5-3.1-1.5c-1,0-1.5-0.7-1.3-1.7c0.2-1.3,1.6-1.899,4.899-2.3c2.5-0.3,5.801-1.3,7.2-2.3c1.4-0.9,3.3-1.7,4.2-1.7
		s3.2-0.7,5.3-1.7c2-0.899,4.101-1.5,4.601-1.399c1.5,0.3,4.6-1,4.6-2.101c0-0.5-0.6-0.8-1.4-0.5c-0.699,0.3-2.6-0.3-4.199-1.399
		c-2.9-1.9-6.2-1.7-7.601,0.5c-0.5,0.8-1.3,0.8-2.8-0.101c-2.4-1.6-4.3-1.6-5.7-0.2c-0.5,0.5-4.3,1.2-8.399,1.5
		c-4.101,0.2-10.8,0.601-14.9,0.9c-11,0.6-19.2,1.5-20.1,2c-0.4,0.3-0.9,0-1.1-0.7c-0.3-0.8-3.6-1.1-10.1-1.1
		c-6.3,0-9.7-0.4-9.7-1.101c0-0.6-0.4-0.5-0.9,0.2c-0.6,1-1.8,0.7-5.3-1.7c-5.4-3.6-6.8-3.8-6.8-1.1c0,1.5-0.7,2-2.4,2
		c-1.4,0-2.8-0.5-3.2-1.1c-0.4-0.801,0-0.9,1.5-0.4c1.7,0.5,2.1,0.2,2.1-1.4c0-1.899-0.6-2.1-5.3-2.1c-2.8,0-6.8,0.5-8.7,1.1
		c-1.9,0.601-4.9,1-6.7,1c-1.8,0-3.5,0.4-3.8,0.9c-0.3,0.6-1.9,1-3.6,1c-1.6,0-2.9,0.4-2.9,0.9s-1.7,1.199-3.8,1.6
		c-2,0.4-5.6,1.5-7.9,2.6c-4.7,2.2-5.7,2.301-4.8,0.9c0.3-0.5,0.2-1-0.4-1c-0.5,0-1.3,0.5-1.6,1c-0.3,0.6-1.7,1-3,1
		s-2.8,0.6-3.2,1.4c-0.6,1-3.6,1.6-10.3,2c-13.5,0.8-16.1,1.1-16.8,2.199c-0.4,0.601-6.1,1.801-12.7,2.7c-6.6,0.9-13.3,1.9-15,2.3
		c-8.4,1.601-12.7,0.9-14.8-2.3c-0.9-1.399-13.6-0.899-16.6,0.601c-2.6,1.3-11,2.399-18.3,2.3c-6.6-0.101-21.3,2.899-23.2,4.8
		c-0.5,0.5-2.8,0.7-5.1,0.3c-2.6-0.3-4.5-0.1-4.9,0.5c-0.4,0.601-1.3,0.9-2.1,0.5c-0.9-0.3-2.1-0.1-2.8,0.3
		c-1,0.801-4.1,0.9-11.2,0.301c-1.1-0.101-4.9,0.1-8.5,0.5c-3.6,0.399-9,0.899-12,1.1s-6.2,0.5-7,0.7c-1.2,0.2-1.6-1.101-1.8-7.2
		c-0.2-7.3-0.2-7.5,2.5-9.1C4.4,758,6.5,757.6,8,758c3.3,0.8,8.5-0.3,8.5-1.7c0-0.7-1.5-2.3-3.3-3.7c-2.7-1.899-4.2-2.3-7-1.899
		c-2.1,0.3-4.3,1-4.9,1.6C0.3,753,0,741,0,692.6C0,650.4,0.3,632,1.1,632c0.6,0,1.9,0.4,2.9,1c2.7,1.4,11.4,1.9,15.7,0.9
		c7.6-1.9,39.9-3.2,87.3-3.601c53.4-0.399,51.9-0.5,76.5,6.4c5,1.399,12.8,3.6,17.5,4.8c4.7,1.3,11.2,3.1,14.5,4s7.8,2.1,10,2.7
		c2.2,0.5,10.9,3.2,19.4,6c8.4,2.7,19,5.6,23.5,6.399c4.4,0.801,10.6,2,13.6,2.5c11.8,2.2,25.1,3,67,3.801
		c23.9,0.5,45.9,1.399,48.9,2c6.1,1.199,13.1,1.399,11.6,0.3c-0.6-0.4-3.1-3.4-5.7-6.7c-8-10.5-10.2-22-11.5-59.6
		c-0.7-22.301-1.5-20,9-23.7c6.5-2.3,6.9-2.3,12.2-0.7c4.6,1.3,27,12.1,30,14.5c1.8,1.4,19.8,7.8,26.5,9.3
		c18.4,4.4,44.2,5.9,94,5.601c22.8-0.2,63.3,0.1,90,0.5c47.9,0.8,85.7-0.101,102-2.5c3.6-0.5,12.6-1.5,20-2
		c9.2-0.801,15.1-1.7,18.5-3.101c5.2-2.1,27-3.899,65-5.3c16.8-0.6,32.5-2.6,52.2-6.7c8.1-1.6,11.5-2.899,16.7-6.2
		c9.699-6.199,12.699-7.899,17.3-9.8c8-3.3,12-6.5,15-12c2.7-5.1,3-5.3,7.3-5.6c2.5-0.101,5.1,0.2,5.8,0.6c0.7,0.5,2.5,5.3,3.8,10.7
		c1.4,5.4,4.301,13.5,6.5,17.9c4.4,8.899,5.801,17.199,5.9,34.1c0,7.9-0.3,9.7-2.9,15c-1.6,3.3-3.6,9-4.5,12.6
		c-0.8,3.7-3.699,11.301-6.399,17c-2.8,5.7-4.9,10.5-4.7,10.7s2.7-0.899,5.7-2.399c6-3.101,27.6-9.5,41.8-12.4c8.1-1.6,17.4-2,64-3
		c67.4-1.5,110.6-1.7,114.3-0.7l2.7,0.7v68.4V792.8l-3.3,1.101c-1.8,0.6-6.7,1.1-10.9,1c-8-0.101-14.8,1.6-14.8,3.8
		c0,0.7-0.4,1.3-1,1.3c-0.5,0-1-0.7-1-1.5s-0.9-1.5-2-1.5s-2,0.7-2,1.5s-0.4,1.5-1,1.5c-0.5,0-1-1.1-1-2.5c0-2.3-0.2-2.4-2-1.5
		c-1.1,0.6-2,1.7-2,2.5s-0.9,1.5-2,1.5c-1.8,0-2-0.4-1.4-3.5c0.4-2.3,0.2-3.5-0.5-3.5c-1.199,0-1.399,1.1-1.1,4.8
		c0.1,1.9-0.3,2.2-3.4,2.2c-2.5,0-3.6-0.4-3.6-1.5s-1.1-1.5-4-1.5s-4,0.4-4,1.5c0,0.8-0.9,1.5-2,1.5c-1.3,0-2-0.7-2-1.9
		c0-1.5-0.7-2-3.2-2c-5.399,0-8.8,1-8.8,2.5c0,0.801-0.9,1.4-2,1.4c-1.3,0-2-0.7-2-2s-0.5-1.8-1.5-1.4c-0.8,0.4-1.5,1.2-1.5,2
		c0,0.801-0.4,1.4-1,1.4C1114.5,800,1114,799.4,1114,798.6z M518.8,750.1c-0.2-1-1.1-1.5-2.3-1.3c-2.7,0.5-3,0.9-1.6,2.601
		C516.4,753.2,519.2,752.3,518.8,750.1z M524.6,751.4c3.4,1,11.4,1.699,12.5,1c1.9-1.2-3.199-5.4-6.6-5.4c-1.7,0-3.5,0.3-3.9,0.8
		c-0.399,0.4-1.1,0.7-1.399,0.8C523,748.9,521,750.4,521,751.9c0,1.3,0.2,1.3,0.9,0.199C522.4,751.4,523.6,751,524.6,751.4z
		 M511,751c0-0.5-0.9-1-2-1s-2,0.5-2,1c0,0.6,0.9,1,2,1S511,751.6,511,751z M708.8,735.4c3.9-0.4,6.601-1.2,6.9-2
		c0.3-0.801,1.5-1.4,2.7-1.4c1.899-0.1,2-0.1,0.3-1.1c-4.8-2.801-7.4-2.801-15.9,0.3c-4.6,1.6-9.399,3.3-10.8,3.6
		c-2.2,0.601-2.1,0.7,1.5,1.3c2.2,0.4,5.1,0.5,6.5,0.4C701.4,736.3,705.4,735.8,708.8,735.4z"/>
	<path fill="#353715" d="M888.6,783.5c-0.6-1.6,0.301-1.9,2.801-0.9c0.899,0.301,1.3,1,1,1.5C891.6,785.5,889.3,785.2,888.6,783.5z"
		/>
	<path fill="#353715" d="M869.6,782.4c-0.3-0.9-0.6-1.801-0.6-2c0-0.7,10.1,0,10.6,0.8c0.301,0.399,1.5,0.8,2.7,0.8
		c1.8,0,1.9,0.2,0.7,1c-0.8,0.5-4,1-7.1,1C871.6,784,870.1,783.6,869.6,782.4z"/>
	<path fill="#353715" d="M566.2,773.5c-1.3-0.7-2-1.5-1.5-1.8c1.2-0.8,5.3,0.3,5.3,1.399C570,774.5,568.5,774.7,566.2,773.5z"/>
	<path fill="#353715" d="M226.5,749c-0.7-1.2,4.2-3.7,5.2-2.7c0.4,0.4-0.2,1.4-1.3,2.2C228.1,750.2,227.3,750.3,226.5,749z"/>
</g>
<g id="layer104">
	<path fill="#512814" d="M538,720.5c-0.8-0.2-6.2-0.8-12-1.5c-13.2-1.4-22.9-3.4-35-7c-5.2-1.6-14.4-4.4-20.5-6.1
		c-6-1.801-15.7-5.4-21.3-8.101c-5.7-2.6-10.8-4.8-11.4-4.8c-0.5,0-4.1-1.6-8-3.7c-4.899-2.6-8.899-5.8-13.8-11.1
		c-3.8-4.101-6.7-7.8-6.5-8.3c0.3-0.4,0.2-0.9-0.3-1.101c-0.4-0.1-2.8-3-5.4-6.3c-8-10.5-10.2-22-11.5-59.6
		c-0.7-22.301-1.5-20,9-23.7c6.5-2.3,6.9-2.3,12.2-0.7c4.6,1.3,27,12.1,30,14.5c1.8,1.4,19.8,7.8,26.5,9.3
		c18.4,4.4,44.2,5.9,94,5.601c22.8-0.2,63.3,0.1,90,0.5c47.9,0.8,85.7-0.101,102-2.5c3.6-0.5,12.6-1.5,20-2
		c9.2-0.801,15.1-1.7,18.5-3.101c5.2-2.1,27-3.899,65-5.3c16.8-0.6,32.5-2.6,52.2-6.7c8.1-1.6,11.5-2.899,16.7-6.2
		c9.699-6.199,12.699-7.899,17.3-9.8c8-3.3,12-6.5,15-12c2.7-5.1,3-5.3,7.3-5.6c2.5-0.101,5.1,0.2,5.8,0.6c0.7,0.5,2.5,5.3,3.8,10.7
		c1.4,5.4,4.301,13.5,6.5,17.9c4.4,8.899,5.801,17.199,5.9,34.1c0,7.9-0.3,9.7-2.9,15c-1.6,3.3-3.6,9-4.5,12.6
		c-1.899,8.601-11.5,28.7-16.1,33.7c-5.3,5.9-10,8.8-21.6,13.101c-13.5,5.1-25.5,7.8-45.4,10.1c-20.8,2.4-24,2.9-30,4.6
		c-8.1,2.2-36.2,4.5-79,6.4c-13.7,0.6-28.4,1.5-32.5,2s-11.1,1-15.5,1.1c-4.4,0-10.5,0.5-13.5,1c-3,0.4-15.2,1.101-27,1.4
		C673.4,720.1,539.9,721,538,720.5z"/>
</g>
<g id="layer105">
	<path fill="#83532D" d="M513.5,625.5c-7.7-0.8-23.3-2.1-34.6-2.9c-18.2-1.3-21.5-1.899-28.9-4.5c-4.5-1.699-9.8-4-11.7-5.1
		c-1.899-1.1-3.899-2-4.5-2c-0.6,0-3.1-1.2-5.5-2.7c-3.1-2-5.399-4.7-7.899-9.1c-2-3.5-3.301-6.601-2.9-7c0.3-0.4,2.5,0.399,4.8,1.6
		c14.2,7.9,19.5,10.5,25.9,12.8c4,1.5,7.8,3,8.399,3.5c2.2,1.7,24.801,5.801,38.9,7.101c13.6,1.1,61.6,1.6,181,1.7
		c51.6,0,80.8-1,87.6-3c1.9-0.5,9-1.2,15.9-1.5c9.9-0.5,13.7-1.101,18-2.9c6.6-2.8,21.5-4.2,61-5.5c18.2-0.6,28.5-1.4,32.9-2.5
		c3.5-0.9,7-1.5,7.899-1.3c1.7,0.3-7,3.899-13.8,5.7c-2.5,0.6-10.5,2.699-17.9,4.6c-7.399,1.9-15.699,3.5-18.5,3.5
		c-2.8,0.1-10.3,0.7-16.6,1.6c-28.6,3.601-63.7,5.301-128.3,6c-30.3,0.301-56.101,1-59,1.601C637.1,626.9,530.3,627.1,513.5,625.5z"
		/>
</g>
</svg>
